<?xml version="1.0" standalone="no"?>
<!DOCTYPE svg PUBLIC "-//W3C//DTD SVG 20010904//EN"
 "http://www.w3.org/TR/2001/REC-SVG-20010904/DTD/svg10.dtd">
<svg version="1.0" xmlns="http://www.w3.org/2000/svg"
 width="16.000000pt" height="16.000000pt" viewBox="0 0 16.000000 16.000000"
 preserveAspectRatio="xMidYMid meet">
<metadata>
Created by potrace 1.11, written by Peter Selinger 2001-2013
</metadata>
<g transform="translate(0.000000,16.000000) scale(0.020000,-0.020000)"
fill="#000000" stroke="none">
<path d="M199 700 c-125 -119 -169 -163 -169 -170 0 -5 42 -49 93 -99 l92 -90
3 70 3 69 170 0 c186 0 220 -7 257 -55 65 -82 16 -205 -89 -221 l-39 -7 0 -50
0 -50 46 7 c128 17 209 108 209 236 0 75 -19 122 -70 171 -60 59 -98 68 -302
68 l-182 1 -3 68 c-3 61 -4 66 -19 52z"/>
<path d="M100 150 l0 -50 40 0 40 0 0 50 0 50 -40 0 -40 0 0 -50z"/>
<path d="M240 150 l0 -50 40 0 40 0 0 50 0 50 -40 0 -40 0 0 -50z"/>
<path d="M380 150 l0 -50 40 0 40 0 0 50 0 50 -40 0 -40 0 0 -50z"/>
</g>
</svg>
